{"title":"Central Bazaar (Stephen Dwoskin, 1976)","uid":9605072,"size":2435014642,"categoryP":"video","categoryS":"movies","magnet":"?xt=urn:btih:9dbbc17e4cc177a7089e71872980f1343c1e0e2b&amp;dn=Central+Bazaar+%28Stephen+Dwoskin%2C+1976%29&amp;tr=udp%3A%2F%2Ftracker.openbittorrent.com%3A80&amp;tr=udp%3A%2F%2Fopen.demonii.com%3A1337&amp;tr=udp%3A%2F%2Ftracker.coppersurfer.tk%3A6969&amp;tr=udp%3A%2F%2Fexodus.desync.com%3A6969","seeders":1,"leechers":1,"uploader":"tonioferah","files":1,"time":1392163661,"description":"For this remarkable experimental film, the provocative avant-garde legend Stephen Dwoskin gathered together a group of strangers and filmed them as they explored their fantasies over a period of five days: a project that now sounds a little like TV's Big Brother. The ceremonial gowns and make-up here not only evoke the eroticism of European horror movies but also highlight the film's interplay between performance and intimacy. \n\nJonas Mekas called it 'theatre of life'\n\n\n______________________________________\n\n\n\nGeneral\nComplete name                    : Central.Bazaar.1976.DVDRip.x264.mkv\nFormat                           : Matroska\nFile size                        : 2.27 GiB\nDuration                         : 2h 21mn\nOverall bit rate                 : 2 290 Kbps\nWriting application              : HandBrake 0.9.6\nWriting library                  : libmkv 0.6.5\n\nVideo\nID                               : 1\nFormat                           : AVC\nFormat/Info                      : Advanced Video Codec\nFormat profile                   : &lt;a class=&quot;__cf_email__&quot; href=&quot;/cdn-cgi/l/email-protection&quot; data-cfemail=&quot;a2eacbc5cae2ee918c93&quot;&gt;[email&amp;#160;protected]&lt;/a&gt;&lt;script cf-hash='f9e31' type=&quot;text/javascript&quot;&gt;\n/* &lt;![CDATA[ */!function(){try{var t=&quot;currentScript&quot;in document?document.currentScript:function(){for(var t=document.getElementsByTagName(&quot;script&quot;),e=t.length;e--;)if(t[e].getAttribute(&quot;cf-hash&quot;))return t[e]}();if(t&amp;&amp;t.previousSibling){var e,r,n,i,c=t.previousSibling,a=c.getAttribute(&quot;data-cfemail&quot;);if(a){for(e=&quot;&quot;,r=parseInt(a.substr(0,2),16),n=2;a.length-n;n+=2)i=parseInt(a.substr(n,2),16)^r,e+=String.fromCharCode(i);e=document.createTextNode(e),c.parentNode.replaceChild(e,c)}}}catch(u){}}();/* ]]&gt; */&lt;/script&gt;\nFormat settings, CABAC           : Yes\nFormat settings, ReFrames        : 11 frames\nFormat settings, GOP             : M=1, N=28\nCodec ID                         : V_MPEG4/ISO/AVC\nDuration                         : 2h 21mn\nBit rate                         : 1 964 Kbps\nWidth                            : 698 pixels\nHeight                           : 574 pixels\nDisplay aspect ratio             : 1.298\nOriginal display aspect ratio    : 1.299\nFrame rate                       : 25.000 fps\nColor space                      : YUV\nChroma subsampling               : 4:2:0\nBit depth                        : 8 bits\nScan type                        : Progressive\nBits/(Pixel*Frame)               : 0.196\nStream size                      : 1.91 GiB (84%)\nWriting library                  : x264 core 120\nEncoding settings                : cabac=1 / ref=11 / deblock=1:-2:-2 / analyse=0x3:0x133 / me=umh / subme=11 / psy=1 / psy_rd=1.00:0.00 / mixed_ref=1 / me_range=32 / chroma_me=1 / trellis=2 / 8x8dct=1 / cqm=0 / deadzone=21,11 / fast_pskip=1 / chroma_qp_offset=-2 / threads=3 / sliced_threads=0 / nr=0 / decimate=1 / interlaced=0 / bluray_compat=0 / constrained_intra=0 / bframes=9 / b_pyramid=2 / b_adapt=2 / b_bias=0 / direct=3 / weightb=1 / open_gop=0 / weightp=1 / keyint=250 / keyint_min=25 / scenecut=40 / intra_refresh=0 / rc_lookahead=60 / rc=abr / mbtree=1 / bitrate=1964 / ratetol=1.0 / qcomp=0.60 / qpmin=3 / qpmax=69 / qpstep=4 / ip_ratio=1.40 / aq=2:1.20\nLanguage                         : English\nColor primaries                  : BT.601-6 525, BT.1358 525, BT.1700 NTSC, SMPTE 170M\nTransfer characteristics         : BT.709-5, BT.1361\nMatrix coefficients              : BT.601-6 525, BT.1358 525, BT.1700 NTSC, SMPTE 170M\n\nAudio\nID                               : 2\nFormat                           : AC-3\nFormat/Info                      : Audio Coding 3\nMode extension                   : CM (complete main)\nCodec ID                         : A_AC3\nDuration                         : 2h 21mn\nBit rate mode                    : Constant\nBit rate                         : 320 Kbps\nChannel(s)                       : 2 channels\nChannel positions                : Front: L R\nSampling rate                    : 48.0 KHz\nBit depth                        : 16 bits\nCompression mode                 : Lossy\nStream size                      : 324 MiB (14%)\nLanguage                         : English\n","torrent":{"xt":"urn:btih:9dbbc17e4cc177a7089e71872980f1343c1e0e2b","amp;dn":"Central+Bazaar+%28Stephen+Dwoskin%2C+1976%29","amp;tr":["udp%3A%2F%2Ftracker.openbittorrent.com%3A80","udp%3A%2F%2Fopen.demonii.com%3A1337","udp%3A%2F%2Ftracker.coppersurfer.tk%3A6969","udp%3A%2F%2Fexodus.desync.com%3A6969"],"infoHash":"9dbbc17e4cc177a7089e71872980f1343c1e0e2b","infoHashBuffer":{"type":"Buffer","data":[157,187,193,126,76,193,119,167,8,158,113,135,41,128,241,52,60,30,14,43]},"announce":[],"urlList":[]}}